<?xml version="1.0" standalone="no"?>
<!DOCTYPE svg PUBLIC "-//W3C//DTD SVG 20010904//EN"
 "http://www.w3.org/TR/2001/REC-SVG-20010904/DTD/svg10.dtd">
<svg version="1.0" xmlns="http://www.w3.org/2000/svg"
 width="512.000000pt" height="512.000000pt" viewBox="0 0 512.000000 512.000000"
 preserveAspectRatio="xMidYMid meet">

<g transform="translate(0.000000,512.000000) scale(0.100000,-0.100000)"
fill="#000000" stroke="none">
<path d="M2405 2990 c-409 -38 -769 -250 -995 -588 l-49 -73 -681 1 -680 0 2
-576 c3 -557 4 -576 22 -590 15 -11 56 -14 168 -14 l148 0 0 80 c0 130 35 180
109 154 38 -14 51 -49 51 -146 l0 -88 175 0 175 0 0 98 c0 90 2 100 23 120 31
29 77 29 105 -1 19 -21 22 -34 22 -120 l0 -97 138 0 138 0 12 -33 c21 -59 113
-211 177 -292 257 -327 642 -515 1055 -515 355 0 688 136 939 383 97 95 150
162 216 271 50 81 130 266 141 324 l6 32 109 0 109 0 0 85 c0 97 16 141 55
151 73 18 105 -28 105 -154 l0 -79 84 -7 c46 -4 125 -4 175 0 l91 7 0 97 c0
88 2 98 23 118 31 29 72 28 102 -3 23 -22 25 -32 25 -120 l0 -95 154 0 c127 0
157 3 170 16 14 13 16 51 16 255 l0 239 -594 0 -593 0 -7 53 c-4 28 -10 62
-13 75 l-5 22 606 0 606 0 0 74 c0 66 -3 77 -22 90 -20 14 -98 16 -638 17
l-615 0 -42 87 c-173 358 -501 618 -893 711 -74 18 -288 43 -330 39 -8 0 -51
-4 -95 -8z m335 -266 c324 -67 602 -278 753 -572 280 -544 61 -1206 -488
-1480 -341 -169 -762 -143 -1083 68 -307 203 -492 544 -492 908 0 423 235 802
613 987 215 105 462 137 697 89z"/>
<path d="M317 2660 c-334 -6 -317 0 -317 -107 l0 -63 676 0 676 0 -4 65 c-7
108 16 102 -393 106 -192 2 -480 2 -638 -1z"/>
</g>
</svg>
