<?xml version="1.0" standalone="no"?>
<!DOCTYPE svg PUBLIC "-//W3C//DTD SVG 20010904//EN"
 "http://www.w3.org/TR/2001/REC-SVG-20010904/DTD/svg10.dtd">
<svg version="1.0" xmlns="http://www.w3.org/2000/svg"
 width="512.000000pt" height="512.000000pt" viewBox="0 0 512.000000 512.000000"
 preserveAspectRatio="xMidYMid meet">

<g transform="translate(0.000000,512.000000) scale(0.100000,-0.100000)"
fill="#000000" stroke="none">
<path d="M2125 4954 c-383 -45 -685 -173 -887 -375 -137 -139 -197 -267 -205
-439 l-6 -105 -86 -90 c-318 -331 -521 -746 -597 -1225 -24 -148 -24 -476 -1
-630 22 -143 65 -317 109 -437 l33 -93 44 118 c54 147 179 425 232 517 38 67
43 72 97 90 l57 20 40 97 c47 114 81 154 203 235 94 63 221 115 420 173 105
30 461 120 476 120 2 0 3 -6 3 -12 0 -17 352 -759 369 -777 13 -14 15 -11 101
148 l40 73 22 -113 c31 -169 69 -442 81 -603 14 -167 17 -189 30 -181 23 14
-68 757 -106 879 -6 19 -5 20 12 7 10 -8 58 -53 106 -100 48 -47 90 -82 94
-78 4 3 17 50 30 104 62 253 98 523 87 656 l-6 68 67 -25 c235 -89 538 -241
657 -330 110 -83 239 -219 353 -373 83 -110 206 -303 221 -344 5 -13 -20 -30
-112 -79 -122 -64 -141 -76 -131 -85 5 -5 731 362 794 401 21 12 22 21 23 191
1 98 -3 223 -9 278 -83 749 -518 1394 -1175 1741 -83 44 -112 65 -135 99 -45
65 -140 157 -221 215 -251 177 -586 272 -949 268 -80 0 -158 -3 -175 -4z m273
-771 c19 -36 70 -71 127 -89 85 -27 88 -33 89 -181 1 -97 5 -135 17 -157 l17
-30 43 93 c30 66 50 96 67 102 63 24 135 -4 163 -65 24 -54 24 -81 -5 -142
-25 -55 -76 -102 -144 -135 -38 -19 -42 -24 -37 -48 3 -14 12 -73 20 -131 28
-196 54 -352 60 -359 4 -3 21 -11 38 -17 23 -8 33 -19 40 -45 13 -47 2 -284
-17 -394 -27 -156 -79 -376 -87 -373 -4 2 -53 47 -107 101 -55 53 -104 97
-109 97 -6 0 -38 -55 -73 -122 l-63 -121 -20 39 c-39 77 -337 705 -340 716 -1
7 28 19 68 28 62 15 70 19 73 42 3 24 8 26 68 31 153 12 297 143 321 292 l6
38 -54 -45 c-56 -45 -207 -126 -310 -167 -68 -27 -98 -21 -224 39 -209 100
-311 279 -330 580 -3 52 -9 134 -12 182 -7 99 7 190 39 261 19 42 25 47 55 47
18 0 50 7 72 16 37 15 40 14 75 -9 100 -69 291 -55 416 30 l35 23 6 -53 c3
-29 11 -62 17 -74z m-1473 -1780 c-19 -45 -23 -49 -35 -37 -6 6 0 21 16 42 33
42 38 41 19 -5z"/>
<path d="M2233 4018 c-43 -21 -41 -82 4 -99 35 -13 117 -11 131 3 23 23 14 66
-16 82 -40 21 -94 27 -119 14z"/>
<path d="M1798 3994 c-40 -21 -50 -46 -32 -72 21 -31 124 -32 154 -2 60 60
-38 120 -122 74z"/>
<path d="M2035 3898 c-9 -24 -55 -230 -55 -243 0 -17 68 -70 77 -61 4 4 -7 20
-24 36 l-31 29 24 99 c12 55 26 111 30 126 6 26 -12 39 -21 14z"/>
<path d="M2817 3847 c-18 -19 -42 -51 -52 -73 -22 -46 -34 -151 -16 -140 6 4
11 22 11 39 0 43 40 125 79 161 17 17 31 33 31 38 0 17 -20 7 -53 -25z"/>
<path d="M2252 3858 c-19 -19 -15 -82 6 -101 24 -22 35 -21 55 1 47 51 -13
148 -61 100z"/>
<path d="M1840 3814 c-22 -25 -16 -75 10 -96 20 -16 25 -17 44 -5 12 9 22 27
24 47 6 55 -47 92 -78 54z"/>
<path d="M3560 2263 c0 -9 28 -131 62 -270 40 -163 67 -254 76 -258 9 -3 12 0
10 7 -3 7 -33 131 -68 276 -35 144 -67 262 -72 262 -4 0 -8 -8 -8 -17z"/>
<path d="M4005 1617 c-412 -230 -757 -416 -765 -413 -8 2 -44 17 -80 32 -53
22 -81 28 -152 28 l-86 1 -69 -67 -69 -66 -73 15 c-66 13 -94 12 -79 -3 4 -3
45 -14 91 -24 167 -37 237 -84 237 -160 0 -39 -17 -90 -30 -90 -4 0 -28 11
-53 25 -45 26 -180 75 -204 75 -33 0 -8 -20 45 -35 31 -9 90 -32 129 -51 82
-39 94 -59 74 -125 l-12 -40 -28 20 c-32 23 -158 67 -220 77 -73 12 -40 -11
52 -35 117 -32 181 -68 185 -104 3 -25 -38 -107 -53 -107 -2 0 -60 20 -128 45
-129 47 -147 51 -147 36 0 -5 53 -27 118 -50 152 -54 152 -54 100 -76 -59 -26
-570 -305 -588 -322 -12 -11 -12 -13 6 -13 10 0 132 62 269 137 l250 138 79
-40 c78 -40 79 -40 195 -40 115 0 118 1 193 38 140 69 229 193 251 351 l11 81
576 323 576 322 28 68 c15 37 32 85 37 107 6 22 14 44 20 50 5 5 9 17 9 27 0
9 6 37 13 60 24 74 49 193 46 209 -3 11 -204 -97 -754 -404z"/>
<path d="M1651 1933 c-5 -21 -40 -157 -77 -303 -37 -146 -68 -266 -69 -267 -1
-2 -88 29 -194 67 -106 39 -199 70 -207 70 -44 0 13 -25 251 -110 146 -52 265
-98 265 -101 0 -4 -38 -62 -84 -130 -112 -167 -188 -291 -258 -428 -59 -116
-65 -131 -49 -131 6 0 30 42 56 93 59 123 161 293 266 447 46 68 87 128 91
133 5 9 165 -39 205 -62 9 -4 -41 -121 -167 -391 -115 -245 -176 -388 -170
-394 6 -6 13 -1 19 15 5 13 88 192 185 398 96 206 173 377 171 380 -2 4 -84
35 -183 71 -99 35 -179 67 -177 70 5 8 155 587 155 599 0 26 -20 8 -29 -26z"/>
<path d="M1805 549 c-44 -17 -81 -31 -82 -33 -2 -2 21 -54 51 -117 52 -113 54
-115 97 -128 80 -24 133 -39 185 -52 l51 -12 221 122 c122 67 222 125 222 127
0 18 -91 -23 -264 -119 -187 -104 -200 -109 -212 -92 -16 21 -32 10 193 134
73 40 130 77 127 82 -3 5 -9 9 -13 9 -4 0 -79 -40 -167 -90 -143 -80 -160 -87
-171 -73 -7 9 -13 20 -13 24 0 4 59 39 131 79 90 50 128 75 120 83 -7 7 -48
-11 -133 -58 -68 -38 -126 -69 -129 -71 -3 -2 -13 12 -22 31 l-16 34 86 47
c60 32 81 49 72 55 -9 5 -39 -6 -85 -32 -39 -21 -76 -39 -81 -39 -5 0 -22 27
-38 60 -16 33 -33 60 -39 59 -6 0 -47 -14 -91 -30z"/>
</g>
</svg>
