<?xml version="1.0" standalone="no"?>
<!DOCTYPE svg PUBLIC "-//W3C//DTD SVG 20010904//EN"
 "http://www.w3.org/TR/2001/REC-SVG-20010904/DTD/svg10.dtd">
<svg version="1.0" xmlns="http://www.w3.org/2000/svg"
 width="512.000000pt" height="512.000000pt" viewBox="0 0 512.000000 512.000000"
 preserveAspectRatio="xMidYMid meet">

<g transform="translate(0.000000,512.000000) scale(0.100000,-0.100000)"
fill="#000000" stroke="none">
<path d="M3285 4731 c-858 -213 -1572 -390 -1587 -394 l-28 -7 0 -1490 c0
-820 -3 -1490 -6 -1490 -3 0 -19 9 -35 21 -55 39 -197 99 -285 120 -104 26
-302 31 -399 10 -286 -60 -506 -219 -616 -446 -53 -108 -72 -204 -66 -330 8
-182 73 -323 216 -465 120 -120 254 -194 427 -237 96 -23 334 -24 426 0 326
81 562 298 632 578 14 59 16 198 16 1407 l0 1341 38 10 c130 35 2508 621 2519
621 11 0 13 -164 13 -960 l0 -960 -52 30 c-378 221 -842 174 -1139 -115 -103
-99 -172 -219 -204 -354 -26 -105 -17 -271 19 -369 75 -201 220 -355 428 -451
442 -206 991 -33 1189 374 73 150 69 12 69 2083 0 1024 -3 1862 -7 1861 -5 -1
-710 -175 -1568 -388z"/>
</g>
</svg>
