<?xml version="1.0" standalone="no"?>
<!DOCTYPE svg PUBLIC "-//W3C//DTD SVG 20010904//EN"
 "http://www.w3.org/TR/2001/REC-SVG-20010904/DTD/svg10.dtd">
<svg version="1.0" xmlns="http://www.w3.org/2000/svg"
 width="512.000000pt" height="512.000000pt" viewBox="0 0 512.000000 512.000000"
 preserveAspectRatio="xMidYMid meet">

<g transform="translate(0.000000,512.000000) scale(0.100000,-0.100000)"
fill="#000000" stroke="none">
<path d="M2205 5049 c-625 -59 -1224 -377 -1637 -869 -223 -266 -407 -622
-488 -949 -131 -521 -98 -1041 96 -1523 326 -814 1051 -1381 1934 -1514 143
-22 491 -25 630 -5 102 14 231 39 238 46 2 2 -5 17 -17 34 -61 86 -99 206
-107 341 -8 125 12 217 72 340 115 233 355 379 622 380 l82 0 0 498 c0 581 -1
574 84 658 38 39 65 56 105 68 73 22 87 21 256 -14 279 -58 487 -128 674 -226
74 -38 107 -51 112 -42 28 45 31 503 4 683 -102 698 -485 1306 -1070 1697
-132 88 -367 207 -518 263 -323 118 -716 167 -1072 134z m-667 -906 l251 -447
-57 -37 c-146 -96 -278 -240 -333 -364 -11 -25 -22 -45 -25 -45 -7 0 -958 401
-964 407 -9 9 84 177 170 306 140 209 295 371 480 500 67 46 206 126 221 127
3 0 118 -201 257 -447z m1007 -493 c240 -27 433 -118 602 -283 129 -125 223
-284 273 -457 31 -108 39 -335 15 -451 -22 -108 -56 -205 -101 -288 -135 -246
-343 -414 -619 -497 -84 -26 -102 -28 -270 -28 -168 0 -186 2 -270 28 -295 89
-519 280 -645 549 -120 257 -124 566 -8 832 92 211 296 419 503 510 112 50
274 87 405 94 14 0 66 -4 115 -9z"/>
<path d="M2375 2871 c-111 -50 -151 -199 -78 -288 53 -67 76 -78 158 -78 67 0
77 3 112 31 21 16 48 50 61 74 82 161 -88 336 -253 261z"/>
<path d="M3850 2453 c-37 -14 -74 -49 -91 -87 -17 -38 -19 -77 -19 -608 0
-313 -2 -568 -4 -568 -3 0 -35 7 -73 16 -88 21 -224 14 -312 -17 -244 -84
-407 -330 -387 -583 12 -156 63 -265 175 -376 145 -144 325 -197 524 -155 187
39 366 197 420 370 31 98 37 228 37 793 l0 562 53 -5 c28 -2 81 -7 117 -10
216 -18 382 -110 449 -248 56 -114 58 -242 7 -427 -35 -127 -24 -136 60 -47
188 198 313 442 314 613 1 344 -375 612 -1056 754 -142 30 -184 34 -214 23z"/>
<path d="M4230 1314 l1 -369 25 30 c143 168 252 322 337 477 l37 66 -24 30
c-50 58 -181 111 -318 127 l-58 7 0 -368z"/>
</g>
</svg>
