<?xml version="1.0" standalone="no"?>
<!DOCTYPE svg PUBLIC "-//W3C//DTD SVG 20010904//EN"
 "http://www.w3.org/TR/2001/REC-SVG-20010904/DTD/svg10.dtd">
<svg version="1.0" xmlns="http://www.w3.org/2000/svg"
 width="512.000000pt" height="512.000000pt" viewBox="0 0 512.000000 512.000000"
 preserveAspectRatio="xMidYMid meet">

<g transform="translate(0.000000,512.000000) scale(0.100000,-0.100000)"
fill="#000000" stroke="none">
<path d="M3997 4981 c-129 -129 -139 -141 -133 -168 4 -16 45 -66 98 -119 l90
-92 -133 -160 c-120 -143 -199 -219 -759 -737 -344 -318 -634 -586 -646 -596
-21 -19 -22 -19 -111 10 -49 17 -114 33 -145 37 -52 6 -58 4 -82 -19 -15 -15
-26 -37 -26 -52 0 -30 41 -75 67 -75 22 0 135 -29 142 -36 3 -3 -34 -42 -82
-87 -55 -52 -89 -92 -93 -110 -6 -27 11 -47 262 -298 326 -327 295 -314 425
-176 100 106 92 108 124 -36 13 -60 16 -106 13 -190 -9 -192 -70 -334 -203
-475 -83 -88 -157 -142 -282 -206 -147 -75 -219 -175 -244 -336 -36 -238 -128
-426 -291 -596 -140 -146 -286 -234 -465 -281 -123 -32 -312 -35 -438 -9 -222
48 -423 164 -601 348 -219 226 -327 480 -327 768 0 274 102 512 301 702 171
163 347 248 606 293 163 29 259 101 337 256 72 144 147 238 262 326 60 46 199
116 254 128 33 7 73 46 73 71 0 28 -24 63 -51 74 -23 10 -39 8 -96 -10 -248
-82 -449 -261 -573 -510 -65 -131 -115 -169 -253 -190 -253 -38 -496 -161
-679 -344 -148 -148 -253 -328 -305 -523 -22 -85 -26 -119 -27 -258 -1 -121 4
-181 18 -245 86 -396 365 -747 741 -931 549 -268 1144 -101 1482 417 90 139
148 289 178 465 28 159 56 196 208 273 213 107 382 286 467 493 83 204 83 456
1 669 l-27 70 605 639 c467 493 637 666 741 753 74 62 145 120 158 129 22 16
25 14 122 -82 130 -127 122 -128 293 43 160 162 160 158 47 276 l-80 83 40 34
c27 23 42 45 47 67 6 33 1 39 -273 313 -320 320 -312 315 -384 237 l-39 -43
-68 66 c-71 69 -99 89 -129 89 -10 0 -81 -63 -157 -139z m212 -95 l44 -45 -53
-61 -53 -61 -51 50 -51 51 55 55 c30 30 57 55 60 55 3 0 25 -20 49 -44z m286
-46 c18 -20 18 -21 -2 -43 -11 -12 -128 -144 -261 -294 -133 -149 -246 -275
-253 -278 -6 -4 -15 -3 -21 3 -7 7 68 105 248 321 142 171 261 311 265 311 3
0 14 -9 24 -20z m195 -201 c0 -5 -116 -115 -257 -245 -142 -131 -275 -253
-295 -273 -24 -22 -41 -32 -48 -25 -6 6 89 119 262 312 l270 304 34 -33 c19
-18 34 -36 34 -40z m153 -180 c-10 -10 -151 -128 -313 -263 -250 -208 -297
-243 -309 -231 -15 15 -40 -9 349 348 l235 216 28 -26 c26 -26 27 -28 10 -44z
m47 -254 l44 -45 -57 -57 -57 -58 -50 50 c-27 27 -50 52 -50 56 0 8 109 99
119 99 4 0 27 -20 51 -45z m-770 -357 c0 -5 -1180 -1257 -1334 -1415 l-41 -43
-188 188 -188 189 643 594 c353 327 685 634 737 682 l95 88 138 -138 c76 -76
138 -141 138 -145z"/>
<path d="M1799 4945 c-130 -23 -245 -48 -257 -54 -45 -24 -39 -105 9 -128 22
-11 57 -7 220 22 107 19 200 35 207 35 9 0 12 -83 12 -380 0 -210 -4 -380 -9
-380 -5 0 -30 10 -57 21 -73 33 -202 38 -290 11 -294 -89 -331 -402 -65 -537
158 -79 372 -46 487 77 83 89 79 50 82 702 2 407 -1 588 -8 607 -12 27 -48 50
-78 48 -9 -1 -123 -21 -253 -44z m87 -1013 c177 -91 89 -268 -131 -266 -119 1
-215 67 -215 150 0 53 57 108 140 135 44 15 162 4 206 -19z"/>
<path d="M1155 4799 c-22 -5 -73 -17 -114 -25 -121 -27 -111 23 -111 -550 0
-469 -1 -496 -17 -489 -89 39 -131 47 -223 43 -129 -6 -197 -33 -272 -108 -66
-66 -95 -140 -84 -217 29 -216 329 -338 560 -228 73 35 117 75 151 136 l30 54
3 606 3 606 80 17 c89 19 119 40 119 85 0 59 -50 88 -125 70z m-315 -1200 c91
-50 112 -129 53 -192 -90 -96 -295 -94 -376 3 -37 44 -42 72 -20 116 35 73
110 106 224 101 56 -3 86 -10 119 -28z"/>
<path d="M4290 2265 c-488 -105 -526 -115 -547 -140 -22 -25 -23 -33 -23 -196
0 -130 3 -177 15 -198 23 -46 66 -54 109 -20 26 20 26 21 26 165 0 79 2 144 4
144 2 0 89 18 192 41 228 49 705 149 710 149 2 0 4 -171 4 -380 0 -209 -2
-380 -4 -380 -2 0 -23 9 -47 19 -149 66 -347 35 -457 -72 -66 -64 -86 -109
-86 -192 0 -83 20 -128 86 -192 176 -171 520 -128 631 80 22 42 22 42 25 641
l3 599 -22 24 c-16 16 -33 23 -58 22 -20 -1 -272 -52 -561 -114z m361 -927
c56 -16 117 -72 125 -112 7 -42 -14 -86 -58 -119 -47 -35 -91 -47 -168 -47
-115 0 -214 67 -214 145 0 47 30 85 94 118 60 30 150 37 221 15z"/>
<path d="M1630 2354 c-156 -33 -325 -161 -398 -301 -94 -179 -93 -399 0 -576
69 -130 218 -247 373 -293 73 -21 217 -24 295 -5 144 35 290 139 372 265 91
141 116 338 63 503 -94 297 -399 473 -705 407z m211 -144 c141 -26 272 -129
332 -260 60 -130 47 -306 -33 -428 -169 -262 -553 -275 -738 -26 -192 259 -63
625 247 706 77 20 119 22 192 8z"/>
<path d="M1677 2130 c-177 -45 -298 -209 -285 -390 7 -96 47 -178 119 -244 78
-72 147 -99 254 -100 70 0 90 4 147 31 87 41 141 92 179 168 121 247 -40 527
-311 541 -36 2 -82 -1 -103 -6z m201 -176 c28 -16 52 -43 72 -77 111 -194 -97
-408 -297 -304 -62 33 -113 119 -113 192 0 86 77 191 156 213 55 15 131 5 182
-24z"/>
<path d="M3744 1519 c-17 -19 -19 -41 -22 -209 l-3 -187 -57 23 c-245 99 -532
-47 -532 -272 0 -113 62 -197 190 -258 61 -29 72 -31 180 -31 108 0 119 2 180
31 85 40 132 82 164 146 l26 52 0 343 c0 330 -1 344 -20 363 -27 27 -81 26
-106 -1z m-117 -524 c135 -60 120 -199 -26 -250 -84 -29 -212 -13 -266 33
-105 88 -50 210 108 242 58 11 122 2 184 -25z"/>
<path d="M574 1465 c-48 -29 -68 -56 -84 -113 -24 -91 -22 -93 348 -465 185
-186 349 -345 364 -353 35 -18 121 -18 157 1 67 34 108 115 96 193 -6 46 -16
57 -348 391 -191 191 -356 349 -374 357 -50 22 -112 17 -159 -11z m420 -444
c315 -315 344 -351 289 -351 -22 0 -643 619 -643 641 0 18 9 29 24 29 6 0 155
-144 330 -319z"/>
</g>
</svg>
