<?xml version="1.0" standalone="no"?>
<!DOCTYPE svg PUBLIC "-//W3C//DTD SVG 20010904//EN"
 "http://www.w3.org/TR/2001/REC-SVG-20010904/DTD/svg10.dtd">
<svg version="1.0" xmlns="http://www.w3.org/2000/svg"
 width="512.000000pt" height="512.000000pt" viewBox="0 0 512.000000 512.000000"
 preserveAspectRatio="xMidYMid meet">

<g transform="translate(0.000000,512.000000) scale(0.100000,-0.100000)"
fill="#000000" stroke="none">
<path d="M2334 5109 c-53 -15 -127 -72 -157 -120 -43 -70 -49 -142 -45 -497 4
-296 5 -321 26 -377 12 -32 22 -61 22 -62 0 -1 -26 -16 -59 -32 -178 -90 -328
-248 -421 -443 -81 -169 -84 -189 -88 -660 l-3 -418 -540 0 -539 0 0 -325 0
-325 75 0 75 0 0 -925 0 -925 75 0 75 0 2 773 3 772 73 3 72 3 0 -776 0 -775
75 0 75 0 2 773 3 772 423 3 422 2 0 -515 0 -515 80 0 80 0 0 515 0 515 170 0
170 0 0 -775 0 -775 80 0 80 0 0 775 0 775 170 0 170 0 0 -775 0 -775 80 0 80
0 0 775 0 775 110 0 110 0 0 75 0 75 -1265 0 -1266 0 3 73 3 72 313 3 312 2 0
40 0 40 75 0 75 0 0 -40 0 -40 1338 -2 1337 -3 3 -72 3 -73 -391 0 -390 0 0
-75 0 -75 238 -2 237 -3 3 -772 2 -773 75 0 75 0 0 775 0 776 73 -3 72 -3 3
-773 2 -772 75 0 75 0 0 925 0 925 75 0 75 0 0 325 0 325 -340 0 -340 0 0 -40
0 -40 -75 0 -75 0 0 40 0 40 -125 0 -125 0 0 270 0 270 -75 0 -75 0 0 -270 0
-270 -110 0 -110 0 0 425 0 425 -80 0 -80 0 0 -275 0 -275 -170 0 -170 0 0
-75 0 -75 170 0 170 0 0 -75 0 -75 -420 0 -420 0 0 425 0 425 -80 0 -80 0 0
-425 0 -425 -111 0 -110 0 3 408 c4 433 4 431 58 574 29 78 106 194 175 263
62 61 166 133 239 165 l45 19 58 -35 c32 -19 77 -40 100 -47 l42 -11 3 -125 3
-126 75 0 75 0 3 126 3 125 42 11 c23 7 68 28 101 47 l58 36 88 -46 c233 -120
386 -339 422 -605 l12 -89 73 0 73 0 0 34 c0 52 -27 195 -49 259 -81 233 -253
432 -468 541 -29 14 -53 28 -53 29 0 1 10 30 22 62 19 53 22 86 26 295 l4 235
119 237 119 238 -432 -1 c-238 0 -447 -5 -464 -10z m496 -732 c0 -187 -1 -195
-26 -245 -28 -56 -63 -91 -128 -125 -58 -31 -174 -31 -232 0 -65 34 -100 69
-128 125 -25 50 -26 58 -26 245 l0 193 270 0 270 0 0 -193z"/>
<path d="M4148 4912 l-388 -86 0 -322 0 -321 -74 -5 c-97 -6 -154 -38 -197
-111 -27 -47 -30 -59 -27 -124 4 -92 37 -145 117 -185 114 -58 244 -17 304 95
21 40 22 56 25 297 l3 255 227 49 c124 27 234 51 244 54 16 4 18 -4 18 -92 l0
-96 -53 0 c-108 0 -182 -42 -223 -126 -22 -45 -26 -64 -22 -118 14 -223 314
-282 421 -83 22 41 22 48 25 525 2 265 -1 481 -5 481 -4 -1 -182 -40 -395 -87z
m250 -174 l-3 -73 -210 -47 c-115 -25 -225 -49 -242 -53 l-33 -6 0 73 0 73
233 52 c127 28 238 51 245 52 10 1 12 -17 10 -71z m0 -625 c-4 -43 -10 -61
-28 -75 -49 -40 -120 -5 -120 58 0 47 38 74 103 74 l49 0 -4 -57z m-638 -123
c0 -46 -21 -95 -45 -104 -54 -20 -105 13 -105 69 0 47 37 75 101 75 l49 0 0
-40z"/>
<path d="M1340 4815 l0 -75 75 0 75 0 0 75 0 75 -75 0 -75 0 0 -75z"/>
<path d="M1090 4565 l0 -75 75 0 75 0 0 75 0 75 -75 0 -75 0 0 -75z"/>
<path d="M1590 4565 l0 -75 75 0 75 0 0 75 0 75 -75 0 -75 0 0 -75z"/>
<path d="M1340 4315 l0 -75 75 0 75 0 0 75 0 75 -75 0 -75 0 0 -75z"/>
<path d="M772 3898 c73 -190 197 -553 191 -558 -4 -4 -30 -15 -57 -25 -166
-61 -204 -273 -69 -384 110 -91 280 -55 342 72 39 80 32 117 -83 440 -58 160
-104 292 -103 293 1 0 58 -5 127 -12 69 -6 126 -11 126 -10 1 0 4 33 8 73 l7
72 -33 5 c-18 3 -109 13 -203 21 -93 8 -190 18 -214 21 -34 4 -43 3 -39 -8z
m274 -766 c9 -48 -6 -85 -39 -96 -37 -13 -79 3 -95 37 -21 44 -1 81 56 105 42
18 48 18 59 4 7 -8 16 -31 19 -50z"/>
<path d="M4060 3255 l0 -75 75 0 75 0 0 75 0 75 -75 0 -75 0 0 -75z"/>
<path d="M3810 3005 l0 -75 75 0 75 0 0 75 0 75 -75 0 -75 0 0 -75z"/>
<path d="M4310 3005 l0 -75 75 0 75 0 0 75 0 75 -75 0 -75 0 0 -75z"/>
<path d="M4060 2755 l0 -75 75 0 75 0 0 75 0 75 -75 0 -75 0 0 -75z"/>
<path d="M1980 185 l0 -185 80 0 80 0 0 185 0 185 -80 0 -80 0 0 -185z"/>
</g>
</svg>
